<svg width="50" height="32" viewBox="0 0 50 32" fill="none" xmlns="http://www.w3.org/2000/svg">
<g clip-path="url(#clip0_900_7137)">
<path d="M50 0H0V32H50V0Z" fill="black"/>
<path d="M30.8246 22.8917C30.9105 22.8917 31.0339 22.9081 31.1281 22.9451L30.9968 23.3457C30.9067 23.3087 30.8167 23.2965 30.7303 23.2965C30.4517 23.2965 30.3124 23.4762 30.3124 23.7992V24.8952H29.8859V22.9409H30.3081V23.1781C30.4189 23.0064 30.5788 22.8917 30.8246 22.8917ZM29.2494 23.3293H28.5527V24.2124C28.5527 24.4085 28.6222 24.5395 28.8356 24.5395C28.9463 24.5395 29.0856 24.5026 29.2123 24.4291L29.3352 24.7927C29.2001 24.8868 28.9871 24.9443 28.8028 24.9443C28.2985 24.9443 28.1226 24.6743 28.1226 24.2204V23.3293H27.7248V22.9409H28.1226V22.3479H28.5527V22.9409H29.2494V23.3293ZM23.7941 23.7463C23.8396 23.4641 24.0113 23.2717 24.3148 23.2717C24.5893 23.2717 24.7656 23.4435 24.8107 23.7463H23.7941ZM25.2535 23.918C25.2493 23.3087 24.8721 22.8917 24.3228 22.8917C23.7491 22.8917 23.3475 23.3087 23.3475 23.918C23.3475 24.5391 23.7655 24.9439 24.3519 24.9439C24.647 24.9439 24.9172 24.8704 25.155 24.6701L24.9458 24.3551C24.7821 24.4862 24.5728 24.5596 24.3763 24.5596C24.1019 24.5596 23.8518 24.4328 23.7904 24.0814H25.2451L25.2535 23.918ZM27.1262 23.4397C27.0075 23.3658 26.7659 23.2717 26.5159 23.2717C26.2823 23.2717 26.1429 23.3578 26.1429 23.501C26.1429 23.6099 26.2452 23.6537 26.386 23.6793L26.6754 23.7215C27.1018 23.7832 27.3598 23.963 27.3598 24.3065C27.3598 24.6785 27.0319 24.9443 26.4666 24.9443C26.1467 24.9443 25.8516 24.8624 25.618 24.6907L25.8188 24.3593C25.9623 24.4698 26.1758 24.5639 26.4708 24.5639C26.7617 24.5639 26.9174 24.4782 26.9174 24.3266C26.9174 24.2166 26.8067 24.1548 26.5731 24.1225L26.3723 24.094C25.9337 24.0322 25.6959 23.8361 25.6959 23.5174C25.6959 23.129 26.0158 22.8917 26.5117 22.8917C26.8231 22.8917 27.106 22.9614 27.3105 23.0962L27.1262 23.4397ZM32.3825 23.2956C32.2948 23.2956 32.2137 23.311 32.1381 23.3415C32.0631 23.3723 31.9979 23.4154 31.943 23.4706C31.8881 23.5258 31.8449 23.5923 31.8135 23.6695C31.7821 23.7467 31.7666 23.8319 31.7666 23.9246C31.7666 24.0177 31.7821 24.1024 31.8135 24.1796C31.8449 24.2569 31.8881 24.3233 31.943 24.3785C31.9979 24.4338 32.0631 24.4768 32.1381 24.5077C32.2137 24.5386 32.2948 24.5536 32.3825 24.5536C32.4703 24.5536 32.5519 24.5386 32.6269 24.5077C32.7025 24.4768 32.7681 24.4338 32.823 24.3785C32.8789 24.3233 32.922 24.2569 32.9539 24.1796C32.9853 24.1024 33.0008 24.0177 33.0008 23.9246C33.0008 23.8319 32.9853 23.7467 32.9539 23.6695C32.922 23.5923 32.8789 23.5258 32.823 23.4706C32.7681 23.4154 32.7025 23.3723 32.6269 23.3415C32.5519 23.311 32.4703 23.2956 32.3825 23.2956ZM32.3825 22.8917C32.5345 22.8917 32.6753 22.9179 32.8047 22.9708C32.9342 23.0232 33.0463 23.0958 33.1406 23.188C33.2354 23.2801 33.309 23.3892 33.3625 23.5146C33.416 23.6405 33.4427 23.7772 33.4427 23.9246C33.4427 24.072 33.416 24.2087 33.3625 24.3345C33.309 24.46 33.2354 24.5695 33.1406 24.6617C33.0463 24.7539 32.9342 24.8259 32.8047 24.8788C32.6753 24.9312 32.5345 24.9574 32.3825 24.9574C32.2305 24.9574 32.0898 24.9312 31.9603 24.8788C31.8309 24.8259 31.7197 24.7539 31.6259 24.6617C31.532 24.5695 31.4584 24.46 31.4049 24.3345C31.3514 24.2087 31.3247 24.072 31.3247 23.9246C31.3247 23.7772 31.3514 23.6405 31.4049 23.5146C31.4584 23.3892 31.532 23.2801 31.6259 23.188C31.7197 23.0958 31.8309 23.0232 31.9603 22.9708C32.0898 22.9179 32.2305 22.8917 32.3825 22.8917ZM21.3041 23.918C21.3041 23.5745 21.5297 23.2923 21.8985 23.2923C22.2508 23.2923 22.4886 23.5623 22.4886 23.918C22.4886 24.2737 22.2508 24.5433 21.8985 24.5433C21.5297 24.5433 21.3041 24.2615 21.3041 23.918ZM22.8901 24.8952V22.9409H22.4642V23.1781C22.3286 23.0022 22.1241 22.8917 21.8454 22.8917C21.2961 22.8917 20.8659 23.3209 20.8659 23.918C20.8659 24.5147 21.2961 24.9443 21.8454 24.9443C22.1241 24.9443 22.3286 24.8339 22.4642 24.6579V24.8952H22.8901ZM20.4888 24.8952V23.6686C20.4888 23.2067 20.1937 22.8959 19.7185 22.8917C19.4685 22.8875 19.21 22.9652 19.0299 23.2394C18.8948 23.0228 18.6813 22.8917 18.382 22.8917C18.1733 22.8917 17.9683 22.953 17.8083 23.1819V22.9409H17.3824V24.8952H17.8125V23.8118C17.8125 23.4725 18.0011 23.2923 18.292 23.2923C18.5748 23.2923 18.7184 23.4762 18.7184 23.8076V24.8952H19.1485V23.8118C19.1485 23.4725 19.3456 23.2923 19.628 23.2923C19.9193 23.2923 20.0586 23.4762 20.0586 23.8076V24.8952H20.4888Z" fill="white"/>
<path d="M33.902 24.7487V24.7969H33.9465C33.9564 24.7969 33.9648 24.7945 33.9705 24.7908C33.9766 24.7871 33.9798 24.7805 33.9798 24.7726C33.9798 24.7646 33.9766 24.7585 33.9705 24.7548C33.9648 24.7506 33.9564 24.7487 33.9465 24.7487H33.902ZM33.947 24.715C33.97 24.715 33.9878 24.7201 34.0005 24.7304C34.0131 24.7407 34.0192 24.7548 34.0192 24.7726C34.0192 24.7875 34.0146 24.7997 34.0042 24.8095C33.9944 24.8189 33.9798 24.825 33.9615 24.8273L34.0206 24.8952H33.9747L33.9198 24.8278H33.902V24.8952H33.8635V24.715H33.947ZM33.9353 24.9569C33.9564 24.9569 33.9761 24.9532 33.9939 24.9452C34.0122 24.9373 34.0282 24.9265 34.0418 24.913C34.0554 24.8994 34.0662 24.8835 34.0741 24.8647C34.0816 24.8465 34.0859 24.8268 34.0859 24.8058C34.0859 24.7847 34.0816 24.7651 34.0741 24.7468C34.0662 24.7286 34.0554 24.7122 34.0418 24.6986C34.0282 24.685 34.0122 24.6743 33.9939 24.6668C33.9761 24.6588 33.9564 24.6551 33.9353 24.6551C33.9142 24.6551 33.894 24.6588 33.8757 24.6668C33.8569 24.6743 33.8405 24.685 33.8269 24.6986C33.8133 24.7122 33.8025 24.7286 33.795 24.7468C33.787 24.7651 33.7833 24.7847 33.7833 24.8058C33.7833 24.8268 33.787 24.8465 33.795 24.8647C33.8025 24.8835 33.8133 24.8994 33.8269 24.913C33.8405 24.9265 33.8569 24.9373 33.8757 24.9452C33.894 24.9532 33.9142 24.9569 33.9353 24.9569ZM33.9353 24.6116C33.9629 24.6116 33.9883 24.6167 34.0122 24.627C34.0366 24.6368 34.0572 24.6509 34.0755 24.6687C34.0934 24.686 34.1074 24.7066 34.1178 24.7304C34.1281 24.7538 34.1332 24.7791 34.1332 24.8058C34.1332 24.8325 34.1281 24.8577 34.1178 24.8811C34.1074 24.9045 34.0934 24.9251 34.0755 24.9424C34.0572 24.9602 34.0366 24.9743 34.0122 24.9846C33.9883 24.9949 33.9629 25 33.9353 25C33.9071 25 33.8813 24.9949 33.8569 24.9846C33.8325 24.9743 33.8114 24.9602 33.7936 24.9424C33.7758 24.9251 33.7617 24.9045 33.7514 24.8811C33.7411 24.8577 33.7359 24.8325 33.7359 24.8058C33.7359 24.7791 33.7411 24.7538 33.7514 24.7304C33.7617 24.7066 33.7758 24.686 33.7936 24.6687C33.8114 24.6509 33.8325 24.6368 33.8569 24.627C33.8813 24.6167 33.9071 24.6116 33.9353 24.6116Z" fill="white"/>
<path fill-rule="evenodd" clip-rule="evenodd" d="M22.394 8.52344H28.6122V19.6964H22.394V8.52344Z" fill="#6C6BBD"/>
<path fill-rule="evenodd" clip-rule="evenodd" d="M22.79 14.1099C22.7859 11.9285 23.7852 9.86794 25.4995 8.52136C22.5837 6.23049 18.3997 6.56401 15.8851 9.28741C13.3716 12.0098 13.3716 16.208 15.8851 18.9303C18.3997 21.6537 22.5837 21.9872 25.4974 19.6964C23.7832 18.3487 22.7838 16.2882 22.788 14.1099H22.79Z" fill="#EB001B"/>
<path d="M37 14.1098C37 16.8301 35.4473 19.3107 32.9984 20.4988C30.5526 21.6891 27.642 21.3764 25.5026 19.6963C27.2158 18.3476 28.2162 16.2881 28.2162 14.1078C28.2162 11.9274 27.2158 9.86788 25.5026 8.52129C27.642 6.83806 30.5536 6.52538 33.0004 7.71459C35.4473 8.90276 37 11.3864 37 14.1078V14.1098ZM36.3185 18.5134V18.2841H36.4122V18.2361H36.1767V18.2778H36.2705V18.5071H36.3185V18.5134ZM36.7749 18.5134V18.2361H36.702L36.6207 18.4237L36.5404 18.2361H36.4675V18.5071H36.5196V18.2986L36.5977 18.4758H36.6498L36.729 18.2882V18.4967H36.7811H36.7749V18.5134Z" fill="#0099DF"/>
</g>
<defs>
<clipPath id="clip0_900_7137">
<rect width="50" height="32" rx="3" fill="white"/>
</clipPath>
</defs>
</svg>
