<svg width="50" height="32" viewBox="0 0 50 32" fill="none" xmlns="http://www.w3.org/2000/svg">
<g clip-path="url(#clip0_900_7141)">
<path d="M50 0H0V32H50V0Z" fill="black"/>
<path d="M18.0041 24.8597V23.67C18.0041 23.2232 17.7319 22.9218 17.2944 22.9166C17.0402 22.8999 16.796 23.0296 16.6604 23.2546C16.5348 23.0348 16.3055 22.9061 16.0623 22.9176C15.851 22.9072 15.6507 23.0223 15.534 23.2002V22.97H15.1453V24.8639H15.544V23.8175C15.544 23.4931 15.7165 23.3153 15.9846 23.3153C16.2537 23.3153 16.3773 23.4931 16.3773 23.8175V24.8743H16.776V23.828C16.776 23.5036 16.9574 23.3257 17.2176 23.3257C17.4768 23.3257 17.6163 23.5036 17.6163 23.828V24.8848H18.015L18.0051 24.8743L18.0041 24.8597ZM23.8711 22.9658H23.2332V22.3903H22.8345V22.9658H22.4677V23.3425H22.8335V24.2057C22.8335 24.6452 22.995 24.9068 23.4595 24.9068C23.6329 24.9068 23.8024 24.8565 23.9499 24.7603L23.8362 24.4076C23.7306 24.4725 23.612 24.5091 23.4894 24.5123C23.29 24.5123 23.2302 24.3867 23.2302 24.1984V23.3425H23.8711V22.9658H23.8691H23.8711ZM27.2203 22.9176C27.025 22.9176 26.8415 23.0223 26.7449 23.2002V22.97H26.3561V24.8639H26.7548V23.807C26.7548 23.4931 26.8844 23.3257 27.1436 23.3257C27.2333 23.3257 27.313 23.3466 27.3928 23.378L27.5124 22.9909C27.4227 22.9595 27.333 22.9386 27.2333 22.9386L27.2203 22.9176ZM22.1567 23.1165C21.9354 22.9804 21.6782 22.9176 21.421 22.9176C20.9645 22.9176 20.6695 23.1478 20.6695 23.5245C20.6695 23.8384 20.8888 24.0268 21.2925 24.0896L21.4818 24.1209C21.7011 24.1523 21.8008 24.2151 21.8008 24.3198C21.8008 24.4662 21.6613 24.55 21.3921 24.55C21.1828 24.5604 20.9735 24.4872 20.7941 24.3511L20.6047 24.6755C20.8339 24.8429 21.113 24.9266 21.3921 24.9266C21.9204 24.9266 22.2195 24.6755 22.2195 24.3093C22.2195 23.9745 21.9802 23.807 21.5915 23.7443L21.422 23.7233C21.2526 23.7024 21.113 23.671 21.113 23.535C21.113 23.4094 21.2426 23.3153 21.4619 23.3153C21.6613 23.3153 21.8507 23.378 22.0301 23.4827L22.1975 23.1478L22.1567 23.1165ZM32.6767 22.9176C32.4813 22.9176 32.2979 23.0223 32.2013 23.2002V22.97H31.8125V24.8639H32.2052V23.807C32.2052 23.4931 32.3249 23.3257 32.584 23.3257C32.6638 23.3257 32.7535 23.3466 32.8232 23.378L32.9429 22.9909C32.8531 22.9595 32.7535 22.9386 32.6638 22.9386L32.6767 22.9176ZM27.617 23.9221C27.617 24.4976 27.9988 24.9162 28.5799 24.9162C28.8152 24.9371 29.0484 24.8534 29.2278 24.6964L29.0424 24.3616C28.9069 24.4767 28.7414 24.529 28.571 24.5395C28.258 24.5395 28.0277 24.2988 28.0277 23.9326C28.0277 23.5664 28.257 23.3362 28.571 23.3257C28.7404 23.3362 28.9069 23.3885 29.0424 23.5036L29.2318 23.1792C29.0494 23.0223 28.8172 22.9386 28.5819 22.949C28.0008 22.949 27.619 23.3676 27.619 23.9431H27.617V23.9221ZM31.2952 23.9221V22.9804H30.9014V23.2106C30.7719 23.0327 30.5526 22.9281 30.3333 22.9386C29.8249 22.9386 29.4362 23.3571 29.4362 23.9326C29.4362 24.5081 29.8349 24.9266 30.3432 24.9266C30.5625 24.9371 30.7818 24.8325 30.9114 24.6546V24.8848H31.3101V23.9431L31.2952 23.9221ZM29.8329 23.9221C29.8329 23.5873 30.0323 23.3153 30.3712 23.3153C30.6901 23.3153 30.9094 23.5768 30.9094 23.9221C30.9094 24.2674 30.6901 24.529 30.3612 24.529C30.0223 24.529 29.813 24.257 29.813 23.9221H29.8329ZM25.0882 22.9281C24.5599 22.9281 24.1911 23.3362 24.1911 23.9221C24.1911 24.5081 24.5699 24.9162 25.1181 24.9162C25.3872 24.9266 25.6464 24.8325 25.8557 24.6546L25.6564 24.3511C25.5069 24.4767 25.3175 24.55 25.1281 24.55C24.8689 24.55 24.6397 24.4349 24.5898 24.0896H25.9255C25.9255 24.0372 25.9355 23.9849 25.9355 23.9326C25.9355 23.3466 25.5766 22.9386 25.0782 22.9386L25.0882 22.9281ZM25.0782 23.2943C25.3274 23.2943 25.4869 23.4617 25.5368 23.7547H24.6008C24.6446 23.4827 24.8001 23.2943 25.0822 23.2943H25.0782ZM34.9265 23.9221V22.2051H34.5377V23.1991C34.3982 23.0139 34.1888 22.9103 33.9596 22.9208C33.4512 22.9208 33.0525 23.3393 33.0525 23.9148C33.0525 24.4924 33.4512 24.9109 33.9496 24.9109C34.1689 24.9214 34.3782 24.8168 34.5178 24.6337V24.8639H34.9065V23.9221H34.8966H34.9265ZM33.4612 23.9221C33.4612 23.5978 33.6705 23.3153 34.0094 23.3153C34.3284 23.3153 34.5477 23.5768 34.5477 23.9221C34.5477 24.2674 34.3284 24.529 33.9994 24.529C33.6605 24.529 33.4512 24.257 33.4512 23.9221H33.4612ZM20.204 23.9221V22.9804H19.8162V23.2106C19.6807 23.0327 19.4673 22.9281 19.2461 22.9386C18.7397 22.9386 18.344 23.3571 18.344 23.9326C18.344 24.5081 18.7427 24.9266 19.2451 24.9266C19.4663 24.9371 19.6797 24.8325 19.8152 24.6546V24.8848H20.2139V23.9326L20.204 23.9221ZM18.7387 23.9221C18.7387 23.5978 18.948 23.3153 19.2869 23.3153C19.6059 23.3153 19.8252 23.5768 19.8252 23.9221C19.8252 24.2674 19.6059 24.529 19.277 24.529C18.9381 24.529 18.7287 24.257 18.7287 23.9221H18.7387ZM35.5744 24.6023C35.5943 24.6023 35.6242 24.6127 35.6441 24.6232C35.6641 24.6337 35.684 24.6546 35.694 24.6651C35.7039 24.686 35.7239 24.7069 35.7338 24.7278C35.7538 24.7802 35.7538 24.8325 35.7338 24.8743C35.7239 24.8952 35.7039 24.9162 35.694 24.9371C35.674 24.958 35.6541 24.9685 35.6342 24.979C35.6043 24.9894 35.5843 24.9999 35.5544 24.9999C35.4847 24.9999 35.4149 24.958 35.385 24.8848C35.365 24.8429 35.365 24.7906 35.385 24.7383C35.3949 24.7174 35.4049 24.6964 35.4248 24.6755C35.4448 24.6651 35.4647 24.6441 35.4847 24.6337C35.5046 24.6232 35.5345 24.6232 35.5544 24.6232L35.5744 24.6023ZM35.5744 24.9371C35.5943 24.9371 35.6142 24.9371 35.6242 24.9266L35.6641 24.8952C35.684 24.8743 35.7039 24.8325 35.7039 24.7906C35.7039 24.7488 35.684 24.7174 35.6641 24.686L35.6142 24.6546C35.5943 24.6441 35.5744 24.6441 35.5544 24.6441C35.5345 24.6441 35.5146 24.6546 35.4946 24.6546L35.4448 24.686C35.4149 24.7174 35.4009 24.7592 35.4009 24.7906C35.4009 24.8325 35.4209 24.8743 35.4458 24.8952C35.4617 24.9162 35.4757 24.9266 35.4936 24.9266C35.5136 24.9371 35.5265 24.9476 35.5455 24.9371V24.9476L35.5744 24.9371ZM35.5843 24.7069C35.5943 24.7069 35.6142 24.7174 35.6342 24.7278C35.6441 24.7383 35.6441 24.7488 35.6441 24.7697C35.6441 24.7802 35.6342 24.7906 35.6242 24.8011C35.6142 24.8115 35.5943 24.822 35.5843 24.822L35.6342 24.8848H35.5843L35.5345 24.822H35.5146V24.8952H35.4747V24.7163H35.5484L35.5843 24.7069ZM35.5424 24.7459V24.8135H35.6198C35.6198 24.8135 35.6327 24.8 35.6198 24.8C35.6198 24.7865 35.6107 24.7865 35.6069 24.7729H35.5191L35.5424 24.7459Z" fill="white"/>
<path fill-rule="evenodd" clip-rule="evenodd" d="M22.0291 8.5293H27.9769V19.7462H22.0291V8.5293Z" fill="#F16022"/>
<path fill-rule="evenodd" clip-rule="evenodd" d="M22.4079 14.1379C22.4039 11.9479 23.3598 9.87922 24.9995 8.52734C22.2105 6.22745 18.2084 6.56229 15.8032 9.29641C13.3989 12.0295 13.3989 16.2442 15.8032 18.9773C18.2084 21.7114 22.2105 22.0462 24.9975 19.7463C23.3578 18.3934 22.4019 16.3248 22.4059 14.1379H22.4079Z" fill="#E91D25"/>
<path d="M36 14.1378C36 16.8688 34.5148 19.3591 32.1724 20.552C29.8329 21.7469 27.0489 21.433 25.0025 19.7463C26.6412 18.3923 27.5981 16.3247 27.5981 14.1357C27.5981 11.9468 26.6412 9.87917 25.0025 8.52728C27.0489 6.83742 29.8339 6.52351 32.1744 7.7174C34.5148 8.91024 36 11.4037 36 14.1357V14.1378ZM35.3481 18.5587V18.3285H35.4378V18.2803H35.2126V18.3222H35.3023V18.5524H35.3481V18.5587ZM35.7847 18.5587V18.2803H35.7149L35.6372 18.4687L35.5604 18.2803H35.4907V18.5524H35.5405V18.3431L35.6153 18.521H35.6651L35.7408 18.3326V18.5419H35.7907H35.7847V18.5587Z" fill="#F69E1E"/>
</g>
<defs>
<clipPath id="clip0_900_7141">
<rect width="50" height="32" rx="3" fill="white"/>
</clipPath>
</defs>
</svg>
