<svg width="50" height="32" viewBox="0 0 50 32" fill="none" xmlns="http://www.w3.org/2000/svg">
<g clip-path="url(#clip0_900_7127)">
<path d="M50 0H0V32H50V0Z" fill="#1434CB"/>
<path fill-rule="evenodd" clip-rule="evenodd" d="M22.5333 21.8269H19.536L21.4107 10.2106H24.4078L22.5333 21.8269Z" fill="white"/>
<path fill-rule="evenodd" clip-rule="evenodd" d="M33.3986 10.4946C32.8074 10.2595 31.8697 10 30.7103 10C27.7504 10 25.6661 11.5817 25.6533 13.8431C25.6287 15.5115 27.1456 16.4382 28.2801 16.9945C29.4397 17.563 29.8339 17.934 29.8339 18.4407C29.8221 19.2189 28.8969 19.5777 28.034 19.5777C26.8373 19.5777 26.1961 19.3927 25.2218 18.9598L24.8271 18.7742L24.4077 21.3818C25.1106 21.7027 26.4058 21.9875 27.7504 22C30.8953 22 32.9428 20.4428 32.9671 18.0329C32.979 16.7105 32.178 15.6973 30.4512 14.8693C29.4029 14.3378 28.7609 13.9794 28.7609 13.4356C28.7732 12.9412 29.3039 12.4348 30.4872 12.4348C31.4616 12.41 32.1775 12.6447 32.7199 12.8796L32.991 13.003L33.3986 10.4946Z" fill="white"/>
<path d="M37.3822 17.7116C37.6291 17.0443 38.5789 14.4615 38.5789 14.4615C38.5664 14.4863 38.8252 13.7818 38.9732 13.3494L39.1827 14.3503C39.1827 14.3503 39.7503 17.1309 39.8735 17.7116C39.4051 17.7116 37.9742 17.7116 37.3822 17.7116ZM41.082 10.2106H38.7636C38.0486 10.2106 37.5055 10.4205 37.197 11.1744L32.745 21.8267H35.8899C35.8899 21.8267 36.4077 20.393 36.5189 20.0842C36.864 20.0842 39.9233 20.0842 40.3672 20.0842C40.4532 20.492 40.7248 21.8267 40.7248 21.8267H43.5L41.082 10.2106Z" fill="white"/>
<path fill-rule="evenodd" clip-rule="evenodd" d="M17.0326 10.2106L14.0973 18.1318L13.7765 16.5253C13.2339 14.6716 11.5319 12.6575 9.63263 11.6561L12.3213 21.8146H15.4908L20.202 10.2106H17.0326Z" fill="white"/>
<path fill-rule="evenodd" clip-rule="evenodd" d="M11.3716 10.2106H6.54933L6.5 10.4453C10.2617 11.4093 12.753 13.7329 13.7765 16.5258L12.7282 11.187C12.5557 10.4451 12.0253 10.235 11.3716 10.2106Z" fill="white"/>
</g>
<defs>
<clipPath id="clip0_900_7127">
<rect width="50" height="32" rx="3" fill="white"/>
</clipPath>
</defs>
</svg>
