<svg width="50" height="32" viewBox="0 0 50 32" fill="none" xmlns="http://www.w3.org/2000/svg">
<rect width="50" height="32" rx="3" fill="#1A1A1A"/>
<mask id="mask0_900_7098" style="mask-type:alpha" maskUnits="userSpaceOnUse" x="39" y="11" width="9" height="10">
<path d="M39.3945 11.2937H48V21H39.3945V11.2937Z" fill="white"/>
</mask>
<g mask="url(#mask0_900_7098)">
<path d="M46.9125 11.2936H40.8085C40.1237 11.2936 39.4956 11.8642 39.4054 12.5682C39.3152 13.2722 39.7972 13.8428 40.4819 13.8428H42.1988L41.4564 19.6273C41.3593 20.3855 41.8784 21 42.6158 21C43.3533 21 44.0298 20.3855 44.1269 19.6273L44.8692 13.8428H46.5859C47.2706 13.8428 47.8989 13.2722 47.989 12.5682C48.0792 11.8642 47.5971 11.2936 46.9125 11.2936Z" fill="white"/>
</g>
<mask id="mask1_900_7098" style="mask-type:alpha" maskUnits="userSpaceOnUse" x="3" y="11" width="9" height="10">
<path d="M3 11.2939H11.1183V20.9966H3V11.2939Z" fill="white"/>
</mask>
<g mask="url(#mask1_900_7098)">
<path d="M10.0249 11.2939H5.42247C4.68102 11.2939 4.00096 11.9145 3.90333 12.68L3.01174 19.6103C2.91412 20.3759 3.4359 20.9965 4.17735 20.9965H8.77979C9.46817 20.9965 10.0998 20.4202 10.1904 19.7093C10.2811 18.9985 9.79637 18.4223 9.10798 18.4223H5.84792L6.43664 13.8681H9.69671C10.385 13.8681 11.0167 13.2919 11.1073 12.581C11.1979 11.8701 10.7132 11.2939 10.0249 11.2939Z" fill="white"/>
</g>
<path d="M6.81348 16.1316C6.81348 16.9311 7.43958 17.5789 8.21183 17.5789C8.98398 17.5789 9.61009 16.9311 9.61009 16.1316C9.61009 15.3322 8.98398 14.6842 8.21183 14.6842C7.43958 14.6842 6.81348 15.3322 6.81348 16.1316Z" fill="white"/>
<mask id="mask2_900_7098" style="mask-type:alpha" maskUnits="userSpaceOnUse" x="30" y="11" width="9" height="10">
<path d="M30.0071 11.0274H38.8372V20.9613H30.0071V11.0274Z" fill="white"/>
</mask>
<g mask="url(#mask2_900_7098)">
<path d="M37.6926 11.0273C36.9718 11.0273 36.3107 11.65 36.2157 12.4181L35.9457 14.6035H33.2423L33.5122 12.4181C33.6072 11.65 33.0998 11.0273 32.3791 11.0273C31.6582 11.0273 30.997 11.65 30.9021 12.4181L30.0185 19.5705C29.9236 20.3387 30.431 20.9613 31.1518 20.9613C31.8726 20.9613 32.5338 20.3387 32.6287 19.5705L32.9232 17.1864H35.6267L35.332 19.5705C35.2372 20.3387 35.7445 20.9613 36.4654 20.9613C37.1861 20.9613 37.8474 20.3387 37.9422 19.5705L38.8258 12.4181C38.9208 11.65 38.4135 11.0273 37.6926 11.0273Z" fill="white"/>
</g>
<path d="M26.5264 16C26.3367 17.5499 25.4442 18.4001 24.1877 18.4001C22.9104 18.4001 22.2467 17.5499 22.4365 16C22.6262 14.45 23.499 13.5999 24.7751 13.5999C26.0377 13.5999 26.716 14.45 26.5264 16ZM25.0933 11C22.2987 11 20.2096 12.8695 19.8338 16C19.4557 19.15 21.0795 21 23.8695 21C26.6523 21 28.7361 19.15 29.1289 16C29.5194 12.869 27.889 11 25.0933 11Z" fill="#234182"/>
<path d="M26.5264 16C26.3367 17.5499 25.4442 18.4001 24.1877 18.4001C22.9104 18.4001 22.2467 17.5499 22.4365 16C22.6262 14.45 23.499 13.5999 24.7751 13.5999C26.0377 13.5999 26.716 14.45 26.5264 16ZM25.0933 11C22.2987 11 20.2096 12.8695 19.8338 16C19.4557 19.15 21.0795 21 23.8695 21C26.6523 21 28.7361 19.15 29.1289 16C29.5194 12.869 27.889 11 25.0933 11Z" fill="white"/>
<mask id="mask3_900_7098" style="mask-type:alpha" maskUnits="userSpaceOnUse" x="11" y="11" width="9" height="10">
<path d="M11.1951 11.0274H19.7171V21H11.1951V11.0274Z" fill="white"/>
</mask>
<g mask="url(#mask3_900_7098)">
<path d="M18.5908 11.0274C18.2243 11.0274 17.8738 11.1916 17.6074 11.4545L17.6072 11.4543L17.5883 11.4733C17.5868 11.4749 17.5853 11.4763 17.5838 11.478L14.4322 14.6484L14.7065 12.4236C14.8015 11.6525 14.2933 11.0274 13.5712 11.0274C12.8491 11.0274 12.1867 11.6525 12.0917 12.4236L11.2065 19.6038C11.1114 20.3749 11.6197 21 12.3418 21C13.0639 21 13.7263 20.3749 13.8213 19.6038L14.1227 17.1592L16.7009 20.5303C16.7047 20.5354 16.7086 20.5403 16.7125 20.5455L16.7329 20.5722L16.7329 20.5721C16.9347 20.8245 17.2392 20.9811 17.5972 20.9811C18.3063 20.9811 18.9569 20.3672 19.0504 19.6099C19.0975 19.2276 18.9934 18.8818 18.7876 18.6331L18.7877 18.633L16.568 15.9042L19.1834 13.3928L19.1834 13.3926C19.4603 13.1428 19.6576 12.7901 19.7058 12.3986C19.7992 11.6413 19.3001 11.0274 18.5908 11.0274Z" fill="white"/>
</g>
</svg>
